<?xml version="1.0" standalone="no"?>
<!DOCTYPE svg PUBLIC "-//W3C//DTD SVG 20010904//EN"
 "http://www.w3.org/TR/2001/REC-SVG-20010904/DTD/svg10.dtd">
<svg version="1.0" xmlns="http://www.w3.org/2000/svg"
 width="422.000000pt" height="422.000000pt" viewBox="0 0 422.000000 422.000000"
 preserveAspectRatio="xMidYMid meet">
<metadata>
Created by potrace 1.11, written by Peter Selinger 2001-2013
</metadata>
<g transform="translate(0.000000,422.000000) scale(0.100000,-0.100000)"
fill="#000000" stroke="none">
<path d="M1630 3943 c-449 -259 -1037 -599 -1252 -722 l-98 -56 0 -1060 1
-1060 300 -173 c166 -95 303 -171 306 -169 2 3 4 158 4 346 0 188 4 341 8 341
6 0 283 -158 514 -293 l87 -51 0 -347 0 -347 153 -88 c83 -48 166 -95 182
-105 17 -11 36 -22 44 -26 8 -3 63 -35 124 -70 l109 -63 31 19 c18 10 48 28
67 39 19 10 123 70 230 132 107 62 211 121 230 132 19 11 39 24 44 29 5 5 9
157 9 352 l0 345 66 38 c36 20 120 69 186 108 66 39 122 71 125 71 3 0 48 26
101 58 53 31 104 59 113 63 15 6 16 -24 16 -340 0 -190 3 -346 6 -346 3 0 110
60 238 134 127 73 261 151 299 172 54 31 67 43 68 64 3 88 1 2091 -2 2094 -4
3 -416 242 -524 304 -33 18 -64 37 -70 42 -6 5 -120 -56 -270 -142 -331 -191
-344 -198 -355 -198 -13 0 -600 338 -600 345 0 5 141 85 150 85 5 0 10 3 12 8
2 4 17 14 33 23 52 27 390 222 398 229 7 6 -199 132 -373 228 -25 14 -86 49
-137 78 -50 30 -93 54 -95 53 -1 0 -217 -124 -478 -276z m-47 -830 c45 -27 89
-52 99 -58 9 -5 29 -17 45 -26 15 -9 89 -51 163 -94 74 -43 152 -87 173 -98
20 -12 37 -23 37 -26 0 -3 -33 -25 -73 -47 -39 -23 -170 -99 -290 -168 -121
-69 -223 -126 -228 -126 -5 0 -9 -150 -9 -355 0 -337 -1 -354 -18 -347 -19 7
-490 279 -554 318 l-37 23 1 344 c0 189 3 349 6 354 6 9 251 153 455 267 29
16 72 42 97 57 25 15 46 28 48 28 2 1 40 -20 85 -46z m1747 -660 l0 -348 -287
-165 c-157 -91 -293 -168 -303 -172 -16 -6 -17 18 -17 342 l0 348 186 107
c102 58 236 135 296 170 61 36 113 65 118 65 4 0 7 -156 7 -347z"/>
</g>
</svg>
