<svg height="512pt" viewBox="0 0 512 512" width="512pt" xmlns="http://www.w3.org/2000/svg"><path d="m512 35.308594v26.484375h-450.207031v-61.792969h414.898437c19.5 0 35.308594 15.808594 35.308594 35.308594zm0 0" fill="#955ba5"/><path d="m61.792969 0v61.792969h-61.792969v-26.484375c0-19.5 15.808594-35.308594 35.308594-35.308594zm0 0" fill="#3d324c"/><path d="m61.792969 61.792969v450.207031h-26.484375c-19.5 0-35.308594-15.808594-35.308594-35.308594v-414.898437zm0 0" fill="#955ba5"/><g fill="#3d324c"><path d="m512 61.792969v414.898437c0 19.5-15.808594 35.308594-35.308594 35.308594h-414.898437v-450.207031zm0 0"/><path d="m61.792969 105.929688v17.65625h-17.65625c-4.875 0-8.828125-3.953126-8.828125-8.828126s3.953125-8.828124 8.828125-8.828124zm0 0"/><path d="m61.792969 141.242188v17.65625h-17.65625c-4.875 0-8.828125-3.953126-8.828125-8.828126s3.953125-8.828124 8.828125-8.828124zm0 0"/><path d="m61.792969 176.550781v17.65625h-17.65625c-4.875 0-8.828125-3.953125-8.828125-8.828125s3.953125-8.828125 8.828125-8.828125zm0 0"/><path d="m61.792969 211.863281v17.652344h-17.65625c-4.875 0-8.828125-3.949219-8.828125-8.824219 0-4.878906 3.953125-8.828125 8.828125-8.828125zm0 0"/><path d="m61.792969 247.171875v17.65625h-17.65625c-4.875 0-8.828125-3.953125-8.828125-8.828125s3.953125-8.828125 8.828125-8.828125zm0 0"/><path d="m61.792969 282.484375v17.652344h-17.65625c-4.875 0-8.828125-3.949219-8.828125-8.828125 0-4.875 3.953125-8.824219 8.828125-8.824219zm0 0"/><path d="m61.792969 317.792969v17.65625h-17.65625c-4.875 0-8.828125-3.953125-8.828125-8.828125s3.953125-8.828125 8.828125-8.828125zm0 0"/><path d="m61.792969 353.101562v17.65625h-17.65625c-4.875 0-8.828125-3.953124-8.828125-8.828124s3.953125-8.828126 8.828125-8.828126zm0 0"/><path d="m61.792969 388.414062v17.65625h-17.65625c-4.875 0-8.828125-3.953124-8.828125-8.828124s3.953125-8.828126 8.828125-8.828126zm0 0"/><path d="m61.792969 423.722656v17.65625h-17.65625c-4.875 0-8.828125-3.953125-8.828125-8.828125s3.953125-8.828125 8.828125-8.828125zm0 0"/><path d="m61.792969 459.035156v17.65625h-17.65625c-4.875 0-8.828125-3.953125-8.828125-8.828125s3.953125-8.828125 8.828125-8.828125zm0 0"/><path d="m123.585938 44.136719v17.65625h-17.65625v-17.65625c0-4.875 3.953124-8.828125 8.828124-8.828125s8.828126 3.953125 8.828126 8.828125zm0 0"/><path d="m158.898438 44.136719v17.65625h-17.65625v-17.65625c0-4.875 3.953124-8.828125 8.828124-8.828125s8.828126 3.953125 8.828126 8.828125zm0 0"/><path d="m194.207031 44.136719v17.65625h-17.65625v-17.65625c0-4.875 3.953125-8.828125 8.828125-8.828125s8.828125 3.953125 8.828125 8.828125zm0 0"/><path d="m229.515625 44.136719v17.65625h-17.652344v-17.65625c0-4.875 3.949219-8.828125 8.828125-8.828125 4.875 0 8.824219 3.953125 8.824219 8.828125zm0 0"/><path d="m264.828125 44.136719v17.65625h-17.65625v-17.65625c0-4.875 3.953125-8.828125 8.828125-8.828125s8.828125 3.953125 8.828125 8.828125zm0 0"/><path d="m300.136719 44.136719v17.65625h-17.652344v-17.65625c0-4.875 3.949219-8.828125 8.824219-8.828125 4.878906 0 8.828125 3.953125 8.828125 8.828125zm0 0"/><path d="m335.449219 44.136719v17.65625h-17.65625v-17.65625c0-4.875 3.953125-8.828125 8.828125-8.828125s8.828125 3.953125 8.828125 8.828125zm0 0"/><path d="m370.757812 44.136719v17.65625h-17.65625v-17.65625c0-4.875 3.953126-8.828125 8.828126-8.828125s8.828124 3.953125 8.828124 8.828125zm0 0"/><path d="m406.070312 44.136719v17.65625h-17.65625v-17.65625c0-4.875 3.953126-8.828125 8.828126-8.828125s8.828124 3.953125 8.828124 8.828125zm0 0"/><path d="m441.378906 44.136719v17.65625h-17.65625v-17.65625c0-4.875 3.953125-8.828125 8.828125-8.828125s8.828125 3.953125 8.828125 8.828125zm0 0"/><path d="m476.691406 44.136719v17.65625h-17.65625v-17.65625c0-4.875 3.953125-8.828125 8.828125-8.828125s8.828125 3.953125 8.828125 8.828125zm0 0"/></g><path d="m114.757812 105.929688h-8.828124c-4.875 0-8.828126-3.949219-8.828126-8.828126 0-4.875 3.953126-8.824218 8.828126-8.824218h8.828124c4.875 0 8.828126 3.949218 8.828126 8.824218 0 4.878907-3.953126 8.828126-8.828126 8.828126zm0 0" fill="#955ba5"/><path d="m229.515625 105.929688h-79.445313c-4.875 0-8.828124-3.949219-8.828124-8.828126 0-4.875 3.953124-8.824218 8.828124-8.824218h79.445313c4.878906 0 8.828125 3.949218 8.828125 8.824218 0 4.878907-3.949219 8.828126-8.828125 8.828126zm0 0" fill="#955ba5"/><path d="m414.898438 194.207031h-8.828126c-4.875 0-8.828124-3.953125-8.828124-8.828125s3.953124-8.828125 8.828124-8.828125h8.828126c4.875 0 8.824218 3.953125 8.824218 8.828125s-3.949218 8.828125-8.824218 8.828125zm0 0" fill="#955ba5"/><path d="m512 176.550781v17.65625h-61.792969c-4.875 0-8.828125-3.953125-8.828125-8.828125s3.953125-8.828125 8.828125-8.828125zm0 0" fill="#955ba5"/><path d="m317.792969 432.550781v35.3125h-211.863281v-35.3125c.03125-9.738281 7.917968-17.625 17.65625-17.652343h176.550781c9.738281.027343 17.628906 7.914062 17.65625 17.652343zm0 0" fill="#285680"/><path d="m105.929688 467.863281h211.863281v44.136719h-211.863281zm0 0" fill="#90bae1"/><path d="m141.242188 450.207031c-.59375-.015625-1.183594-.074219-1.765626-.175781-.554687-.097656-1.089843-.277344-1.589843-.53125-.5625-.191406-1.097657-.460938-1.589844-.792969l-1.324219-1.058593c-3.414062-3.484376-3.414062-9.054688 0-12.535157l1.324219-1.0625c.492187-.332031 1.027344-.597656 1.589844-.792969.5-.253906 1.035156-.433593 1.589843-.53125 1.71875-.359374 3.507813-.171874 5.121094.53125 1.066406.449219 2.050782 1.074219 2.910156 1.855469l1.058594 1.324219c.335938.492188.601563 1.023438.796875 1.585938.253907.503906.429688 1.039062.527344 1.589843.238281 1.164063.238281 2.367188 0 3.53125-.097656.554688-.273437 1.089844-.527344 1.589844-.195312.5625-.460937 1.097656-.796875 1.589844l-1.058594 1.324219c-.859374.777343-1.84375 1.402343-2.910156 1.851562-1.0625.453125-2.203125.691406-3.355468.707031zm0 0" fill="#e64c3c"/><path d="m176.550781 450.207031c-.589843-.015625-1.179687-.074219-1.765625-.175781-.550781-.097656-1.085937-.277344-1.589844-.53125-.558593-.191406-1.09375-.460938-1.585937-.792969l-1.324219-1.058593c-3.414062-3.484376-3.414062-9.054688 0-12.535157l1.324219-1.0625c.492187-.332031 1.027344-.597656 1.585937-.792969.503907-.253906 1.039063-.433593 1.589844-.53125 1.722656-.359374 3.511719-.171874 5.121094.53125 1.070312.449219 2.054688 1.074219 2.914062 1.855469l1.058594 1.324219c.332032.492188.601563 1.023438.792969 1.585938.253906.503906.433594 1.039062.53125 1.589843.234375 1.164063.234375 2.367188 0 3.53125-.097656.554688-.277344 1.089844-.53125 1.589844-.191406.5625-.460937 1.097656-.792969 1.589844l-1.058594 1.324219c-.859374.777343-1.84375 1.402343-2.914062 1.851562-1.0625.453125-2.199219.691406-3.355469.707031zm0 0" fill="#24ae5f"/><path d="m114.757812 388.414062h-8.828124c-4.875 0-8.828126-3.953124-8.828126-8.828124s3.953126-8.828126 8.828126-8.828126h8.828124c4.875 0 8.828126 3.953126 8.828126 8.828126s-3.953126 8.828124-8.828126 8.828124zm0 0" fill="#955ba5"/><path d="m229.515625 388.414062h-79.445313c-4.875 0-8.828124-3.953124-8.828124-8.828124s3.953124-8.828126 8.828124-8.828126h79.445313c4.878906 0 8.828125 3.953126 8.828125 8.828126s-3.949219 8.828124-8.828125 8.828124zm0 0" fill="#955ba5"/><path d="m406.070312 353.101562h-26.484374c-14.625 0-26.484376-11.855468-26.484376-26.480468v-88.277344c0-4.875-3.949218-8.828125-8.824218-8.828125h-26.484375c-4.875 0-8.828125-3.949219-8.828125-8.824219 0-4.878906 3.953125-8.828125 8.828125-8.828125h26.484375c14.625 0 26.480468 11.855469 26.480468 26.480469v88.277344c0 4.875 3.953126 8.828125 8.828126 8.828125h26.484374c4.875 0 8.828126 3.953125 8.828126 8.828125s-3.953126 8.824218-8.828126 8.824218zm0 0" fill="#955ba5"/><path d="m317.792969 150.070312v35.308594h-211.863281v-35.308594c.03125-9.738281 7.917968-17.628906 17.65625-17.65625h176.550781c9.738281.027344 17.628906 7.917969 17.65625 17.65625zm0 0" fill="#285680"/><path d="m317.792969 185.378906v141.242188c-.027344 9.738281-7.917969 17.625-17.65625 17.65625h-176.550781c-9.738282-.03125-17.625-7.917969-17.65625-17.65625v-141.242188zm0 0" fill="#90bae1"/><path d="m141.242188 167.722656c-.59375-.015625-1.183594-.074218-1.765626-.175781-.554687-.097656-1.089843-.277344-1.589843-.527344-.5625-.195312-1.097657-.460937-1.589844-.796875l-1.324219-1.058594c-3.414062-3.480468-3.414062-9.054687 0-12.535156l1.324219-1.058594c.492187-.335937 1.027344-.601562 1.589844-.796874.5-.253907 1.035156-.433594 1.589843-.527344 1.71875-.359375 3.507813-.175782 5.121094.527344 1.066406.449218 2.050782 1.078124 2.910156 1.855468l1.058594 1.324219c.335938.492187.601563 1.027344.796875 1.589844.253907.5.429688 1.035156.527344 1.589843.238281 1.164063.238281 2.363282 0 3.527344-.097656.554688-.273437 1.089844-.527344 1.589844-.195312.5625-.460937 1.097656-.796875 1.589844l-1.058594 1.324218c-.859374.777344-1.84375 1.40625-2.910156 1.855469-1.0625.449219-2.203125.691407-3.355468.703125zm0 0" fill="#e64c3c"/><path d="m176.550781 167.722656c-.589843-.015625-1.179687-.074218-1.765625-.175781-.550781-.097656-1.085937-.277344-1.589844-.527344-.558593-.195312-1.09375-.460937-1.585937-.796875l-1.324219-1.058594c-3.414062-3.480468-3.414062-9.054687 0-12.535156l1.324219-1.058594c.492187-.335937 1.027344-.601562 1.585937-.796874.503907-.253907 1.039063-.433594 1.589844-.527344 1.722656-.359375 3.511719-.175782 5.121094.527344 1.070312.449218 2.054688 1.078124 2.914062 1.855468l1.058594 1.324219c.332032.492187.601563 1.027344.792969 1.589844.253906.5.433594 1.035156.53125 1.589843.234375 1.164063.234375 2.363282 0 3.527344-.097656.554688-.277344 1.089844-.53125 1.589844-.191406.5625-.460937 1.097656-.792969 1.589844l-1.058594 1.324218c-.859374.777344-1.84375 1.40625-2.914062 1.855469-1.0625.449219-2.199219.691407-3.355469.703125zm0 0" fill="#24ae5f"/><path d="m512 220.691406v52.964844h-105.929688v-35.3125c.027344-9.738281 7.914063-17.625 17.652344-17.652344zm0 0" fill="#285680"/><path d="m512 273.65625v158.894531h-88.277344c-9.738281-.027343-17.625-7.914062-17.652344-17.652343v-141.242188zm0 0" fill="#90bae1"/><path d="m441.378906 256c-.589844-.015625-1.183594-.074219-1.765625-.175781-.550781-.097657-1.085937-.277344-1.589843-.53125-.5625-.191407-1.09375-.460938-1.585938-.792969l-1.324219-1.058594c-3.414062-3.484375-3.414062-9.054687 0-12.535156l1.324219-1.0625c.492188-.332031 1.023438-.597656 1.585938-.792969.5-.253906 1.039062-.433593 1.589843-.53125 1.722657-.355469 3.511719-.171875 5.121094.53125 1.070313.449219 2.054687 1.074219 2.914063 1.855469l1.058593 1.324219c.332031.492187.601563 1.023437.792969 1.585937.253906.503906.433594 1.039063.53125 1.589844.234375 1.164062.234375 2.367188 0 3.53125-.097656.554688-.277344 1.089844-.53125 1.589844-.191406.5625-.460938 1.097656-.792969 1.589844l-1.058593 1.324218c-.859376.777344-1.847657 1.402344-2.914063 1.851563-1.0625.453125-2.203125.691406-3.355469.707031zm0 0" fill="#e64c3c"/><path d="m476.691406 256c-.59375-.015625-1.183594-.074219-1.765625-.175781-.554687-.097657-1.089843-.277344-1.589843-.53125-.5625-.191407-1.097657-.460938-1.589844-.792969l-1.324219-1.058594c-3.414063-3.484375-3.414063-9.054687 0-12.535156l1.324219-1.0625c.492187-.332031 1.027344-.597656 1.589844-.792969.5-.253906 1.035156-.433593 1.589843-.53125 1.71875-.355469 3.507813-.171875 5.117188.53125 1.070312.449219 2.054687 1.074219 2.914062 1.855469l1.058594 1.324219c.335937.492187.601563 1.023437.796875 1.585937.25.503906.429688 1.039063.527344 1.589844.238281 1.164062.238281 2.367188 0 3.53125-.097656.554688-.277344 1.089844-.527344 1.589844-.195312.5625-.460938 1.097656-.796875 1.589844l-1.058594 1.324218c-.859375.777344-1.84375 1.402344-2.914062 1.851563-1.058594.453125-2.199219.691406-3.351563.707031zm0 0" fill="#24ae5f"/></svg>