<?xml version="1.0" encoding="UTF-8"?>
<svg xmlns="http://www.w3.org/2000/svg" xmlns:xlink="http://www.w3.org/1999/xlink" width="512" height="512" viewBox="0 0 58 58" version="1.1"><!-- Generator: Sketch 51.3 (57544) - http://www.bohemiancoding.com/sketch --><title>041 - Wireframe</title><desc>Created with Sketch.</desc><defs/><g id="Page-1" stroke="none" stroke-width="1" fill="none" fill-rule="evenodd"><g id="041---Wireframe" fill-rule="nonzero"><polygon id="Shape" fill="#285680" points="32 54 24.042 57 16 54 18.667 48 23.875 43.792 29.333 48"/><path d="M48,39 L48,45 C48,46.6568542 46.6568542,48 45,48 L3,48 C1.34314575,48 2.22044605e-16,46.6568542 0,45 L0,39 L48,39 Z" id="Shape" fill="#4482C3"/><rect id="Rectangle-path" fill="#4482C3" x="14" y="54" width="20" height="4" rx="2"/><path d="M48,37 L48,41 L0,41 L0,15 C-4.4408921e-16,13.3431458 1.34314575,12 3,12 L26,12 L26.64,12.73 L27.18,13.34 L48,37 Z" id="Shape" fill="#90BAE1"/><path d="M26.64,12.73 C20.54,14.91 0,23.54 0,41 L0,15 C-4.4408921e-16,13.3431458 1.34314575,12 3,12 L26,12 L26.64,12.73 Z" id="Shape" fill="#B0D3F0"/><path d="M25,46 L25,48 L23,48 L23,46 C23,45.4477153 23.4477153,45 24,45 C24.5522847,45 25,45.4477153 25,46 Z" id="Shape" fill="#285680"/><path d="M58,6 L58,35 C57.9967052,36.1032019 57.1032019,36.9967052 56,37 L28,37 C26.8967981,36.9967052 26.0032948,36.1032019 26,35 L26,6 L58,6 Z" id="Shape" fill="#ECF0F1"/><path d="M30,21 C29.5103795,20.9988921 29.0935663,20.6434312 29.0151659,20.1601271 C28.9367654,19.676823 29.2198373,19.2078283 29.684,19.052 L53.684,11.052 C54.0234023,10.9391041 54.3972523,11.0158529 54.6647242,11.253336 C54.9321961,11.490819 55.0526546,11.852957 54.9807242,12.203336 C54.9087937,12.553715 54.6554023,12.8391041 54.316,12.952 L30.316,20.952 C30.2139215,20.984839 30.1072256,21.0010459 30,21 Z" id="Shape" fill="#E64C3C"/><path d="M54,21 C53.8925571,20.9997552 53.7858558,20.9821968 53.684,20.948 L29.684,12.948 C29.3445977,12.8351041 29.0912063,12.549715 29.0192758,12.199336 C28.9473454,11.848957 29.067804,11.486819 29.3352759,11.249336 C29.6027478,11.0118529 29.9765977,10.9351041 30.316,11.048 L54.316,19.048 C54.7867044,19.1992604 55.0762173,19.6717981 54.997208,20.1598554 C54.9181987,20.6479127 54.4943861,21.0049735 54,21 Z" id="Shape" fill="#E64C3C"/><path d="M41,25 L30,25 C29.4477153,25 29,24.5522847 29,24 C29,23.4477153 29.4477153,23 30,23 L41,23 C41.5522847,23 42,23.4477153 42,24 C42,24.5522847 41.5522847,25 41,25 Z" id="Shape" fill="#556080"/><path d="M54,25 L45,25 C44.4477153,25 44,24.5522847 44,24 C44,23.4477153 44.4477153,23 45,23 L54,23 C54.5522847,23 55,23.4477153 55,24 C55,24.5522847 54.5522847,25 54,25 Z" id="Shape" fill="#556080"/><path d="M54,29 L30,29 C29.4477153,29 29,28.5522847 29,28 C29,27.4477153 29.4477153,27 30,27 L54,27 C54.5522847,27 55,27.4477153 55,28 C55,28.5522847 54.5522847,29 54,29 Z" id="Shape" fill="#556080"/><path d="M37,33 L30,33 C29.4477153,33 29,32.5522847 29,32 C29,31.4477153 29.4477153,31 30,31 L37,31 C37.5522847,31 38,31.4477153 38,32 C38,32.5522847 37.5522847,33 37,33 Z" id="Shape" fill="#556080"/><path d="M54,33 L42,33 C41.4477153,33 41,32.5522847 41,32 C41,31.4477153 41.4477153,31 42,31 L54,31 C54.5522847,31 55,31.4477153 55,32 C55,32.5522847 54.5522847,33 54,33 Z" id="Shape" fill="#556080"/><path d="M14,17 L5,17 C4.44771525,17 4,16.5522847 4,16 C4,15.4477153 4.44771525,15 5,15 L14,15 C14.5522847,15 15,15.4477153 15,16 C15,16.5522847 14.5522847,17 14,17 Z" id="Shape" fill="#FFFFFF"/><path d="M20,17 L18,17 C17.4477153,17 17,16.5522847 17,16 C17,15.4477153 17.4477153,15 18,15 L20,15 C20.5522847,15 21,15.4477153 21,16 C21,16.5522847 20.5522847,17 20,17 Z" id="Shape" fill="#FFFFFF"/><path d="M58,2 L58,8 L26,8 L26,2 C26.0032948,0.896798134 26.8967981,0.00329480111 28,-4.4408921e-16 L56,-4.4408921e-16 C57.1032019,0.00329480111 57.9967052,0.896798134 58,2 Z" id="Shape" fill="#35495E"/><circle id="Oval" fill="#CC4B4C" cx="30" cy="4" r="1"/><circle id="Oval" fill="#F0C419" cx="34" cy="4" r="1"/><circle id="Oval" fill="#4FBA6F" cx="38" cy="4" r="1"/><path d="M54,21 L30,21 C29.4477153,21 29,20.5522847 29,20 L29,12 C29,11.4477153 29.4477153,11 30,11 L54,11 C54.5522847,11 55,11.4477153 55,12 L55,20 C55,20.5522847 54.5522847,21 54,21 Z M31,19 L53,19 L53,13 L31,13 L31,19 Z" id="Shape" fill="#CC4B4C"/></g></g></svg>
