<svg id="Layer_1" enable-background="new 0 0 512 512" height="512" viewBox="0 0 512 512" width="512" xmlns="http://www.w3.org/2000/svg"><g><g><g><g><path d="m224 372h-192c-8.837 0-16-7.163-16-16v-304c0-8.837 7.163-16 16-16h192c8.837 0 16 7.163 16 16v304c0 8.837-7.163 16-16 16z" fill="#a5c3dc"/></g><g><path d="m192 372h-160c-8.837 0-16-7.163-16-16v-304c0-8.837 7.163-16 16-16h160c8.837 0 16 7.163 16 16v304c0 8.837-7.163 16-16 16z" fill="#d7e6f0"/></g><g><path d="m168 348h-112c-8.837 0-16-7.163-16-16v-240c0-8.837 7.163-16 16-16h112c8.837 0 16 7.163 16 16v240c0 8.837-7.163 16-16 16z" fill="#289bc3"/></g><g><path d="m140 60h-56c-2.209 0-4-1.791-4-4 0-2.209 1.791-4 4-4h56c2.209 0 4 1.791 4 4 0 2.209-1.791 4-4 4z" fill="#555a6e"/></g></g><g><path d="m152 228h-80c-4.418 0-8-3.582-8-8v-112c0-4.418 3.582-8 8-8h80c4.418 0 8 3.582 8 8v112c0 4.418-3.582 8-8 8z" fill="#00d2d2"/></g><g><path d="m96 276h-24c-4.418 0-8-3.582-8-8v-16c0-4.418 3.582-8 8-8h24c4.418 0 8 3.582 8 8v16c0 4.418-3.582 8-8 8z" fill="#00d2d2"/></g><g><path d="m152 324h-80c-4.418 0-8-3.582-8-8v-16c0-4.418 3.582-8 8-8h80c4.418 0 8 3.582 8 8v16c0 4.418-3.582 8-8 8z" fill="#ff8caf"/></g><g><path d="m152 276h-24c-4.418 0-8-3.582-8-8v-16c0-4.418 3.582-8 8-8h24c4.418 0 8 3.582 8 8v16c0 4.418-3.582 8-8 8z" fill="#00d2d2"/></g></g><g><g><path d="m480 476h-192c-8.837 0-16-7.163-16-16v-304c0-8.837 7.163-16 16-16h192c8.837 0 16 7.163 16 16v304c0 8.837-7.163 16-16 16z" fill="#a5c3dc"/></g><g><g><path d="m448 476h-160c-8.837 0-16-7.163-16-16v-304c0-8.837 7.163-16 16-16h160c8.837 0 16 7.163 16 16v304c0 8.837-7.163 16-16 16z" fill="#d7e6f0"/></g><g><path d="m424 452h-112c-8.837 0-16-7.163-16-16v-240c0-8.837 7.163-16 16-16h112c8.837 0 16 7.163 16 16v240c0 8.837-7.163 16-16 16z" fill="#289bc3"/></g><g><path d="m396 164h-56c-2.209 0-4-1.791-4-4 0-2.209 1.791-4 4-4h56c2.209 0 4 1.791 4 4 0 2.209-1.791 4-4 4z" fill="#555a6e"/></g></g><g><path d="m368 236h-40c-4.418 0-8-3.582-8-8v-16c0-4.418 3.582-8 8-8h40c4.418 0 8 3.582 8 8v16c0 4.418-3.582 8-8 8z" fill="#00d2d2"/></g><g><path d="m408 284h-80c-4.418 0-8-3.582-8-8v-16c0-4.418 3.582-8 8-8h80c4.418 0 8 3.582 8 8v16c0 4.418-3.582 8-8 8z" fill="#00d2d2"/></g><g><path d="m408 332h-80c-4.418 0-8-3.582-8-8v-16c0-4.418 3.582-8 8-8h80c4.418 0 8 3.582 8 8v16c0 4.418-3.582 8-8 8z" fill="#00d2d2"/></g><g><path d="m408 380h-80c-4.418 0-8-3.582-8-8v-16c0-4.418 3.582-8 8-8h80c4.418 0 8 3.582 8 8v16c0 4.418-3.582 8-8 8z" fill="#00d2d2"/></g><g><path d="m408 428h-80c-4.418 0-8-3.582-8-8v-16c0-4.418 3.582-8 8-8h80c4.418 0 8 3.582 8 8v16c0 4.418-3.582 8-8 8z" fill="#ff8caf"/></g></g><g><path d="m307.79 307.392-18.177-14.138c-1.046-.813-2.332-1.255-3.657-1.255-3.29 0-5.956 2.667-5.956 5.956v10.045c-13.233 0-24-10.766-24-24v-88c0-22.056-17.944-40-40-40h-73.013c-3.561-13.786-16.104-24-30.987-24-17.645 0-32 14.355-32 32s14.355 32 32 32c14.884 0 27.426-10.214 30.987-24h73.013c13.233 0 24 10.766 24 24v88c0 22.056 17.944 40 40 40v10.044c0 3.29 2.667 5.956 5.956 5.956 1.325 0 2.611-.442 3.657-1.255l18.177-14.138c2.656-2.066 4.21-5.243 4.21-8.608s-1.554-6.541-4.21-8.607zm-179.79-143.392c0 8.823-7.178 16-16 16s-16-7.177-16-16 7.178-16 16-16 16 7.177 16 16z" fill="#463c4b"/><circle cx="112" cy="164" fill="#ff8caf" r="16"/></g></g></svg>